<svg xmlns="http://www.w3.org/2000/svg" xmlns:xlink="http://www.w3.org/1999/xlink" viewBox="0 0 98.31 29"><defs><style>.cls-1{isolation:isolate;}.cls-2,.cls-4{fill:#4960aa;}.cls-3{opacity:0.4;mix-blend-mode:screen;fill:url(#radial-gradient);}.cls-4{font-size:11.57px;font-family:Poppins-MediumItalic, Poppins;font-weight:500;font-style:italic;}</style><radialGradient id="radial-gradient" cx="93.38" cy="41.88" r="56.29" gradientUnits="userSpaceOnUse"><stop offset="0.31" stop-color="#fff"/><stop offset="1" stop-color="#010101"/></radialGradient></defs><title>logo</title><g class="cls-1"><g id="Livello_1" data-name="Livello 1"><path class="cls-2" d="M20.84,25a14.21,14.21,0,0,1,1.33-1.45c.43-.41.87-.79,1.31-1.16a26.21,26.21,0,0,1,2.77-2,34.43,34.43,0,0,1,5.94-3A44.14,44.14,0,0,1,44.84,14.7c8.52-.65,16.95.9,24.83,3,7.94,1.88,15.86,3.86,23.86,5.29a60.68,60.68,0,0,0,12.08,1.1,31.24,31.24,0,0,0,11.8-2.69,31.8,31.8,0,0,1-11.75,3.45,62,62,0,0,1-12.34-.37C85.15,23.5,77.11,22,69.05,20.61A108.78,108.78,0,0,0,57.1,18.9a57.35,57.35,0,0,0-11.8.3,38.88,38.88,0,0,0-11.06,3.09,28.83,28.83,0,0,0-4.83,2.8,22,22,0,0,0-2.09,1.72c-.33.3-.64.62-.93.93a9.28,9.28,0,0,0-.69.85,3,3,0,1,1-5.12-3.22l.19-.27Z" transform="translate(-20.12 -1)"/><path class="cls-2" d="M117.61,19.47a23.19,23.19,0,0,1-4.75,1.73,39.59,39.59,0,0,1-4.77.89,48,48,0,0,1-9.58.18,64.61,64.61,0,0,1-9.34-1.59c-3.07-.73-6.09-1.59-9.06-2.6q4.56,1.16,9.2,1.87a63.12,63.12,0,0,0,9.27.84,45.06,45.06,0,0,0,9.14-.92,33.64,33.64,0,0,0,4.38-1.19,21.15,21.15,0,0,0,4-1.79l.06,0a1.51,1.51,0,0,1,1.61,2.55Z" transform="translate(-20.12 -1)"/><polygon class="cls-2" points="94.8 15.01 72.54 15.01 61.34 0 83.6 0 94.8 15.01"/><path class="cls-3" d="M111.1,10.89,103.72,1H81.46l4,5.36c2.27-.42,6.69-.52,14.37,1.85C105.35,9.9,108.77,10.73,111.1,10.89Z" transform="translate(-20.12 -1)"/><polygon class="cls-2" points="60.69 1.02 50.26 15.01 53.34 15.01 62.24 3.06 60.69 1.02"/><text class="cls-4" transform="translate(3.72 11.44)">BoolBnB</text></g></g></svg>